<!-- icon666.com - MILLIONS vector ICONS FREE --><svg fill="none" viewBox="0 0 24 24" xmlns="http://www.w3.org/2000/svg"><g fill="rgb(0,0,0)"><path d="m12.25 12.25c-1.1372 0-2.2489-.3372-3.19453-.969-.94558-.6319-1.68257-1.52989-2.11777-2.58057-.43521-1.05067-.54908-2.20681-.32721-3.3222.22186-1.11539.7695-2.13994 1.57365-2.94409s1.82866-1.35179 2.94406-1.573653c1.1154-.221865 2.2716-.107996 3.3222.327213 1.0507.4352 1.9487 1.17219 2.5806 2.11777.6318.94559.969 2.05729.969 3.19453-.0026 1.52419-.6093 2.98518-1.6871 4.0629-1.0777 1.0778-2.5387 1.6845-4.0629 1.6871zm0-10c-.8406 0-1.6623.24926-2.36117.71626-.69891.46699-1.24364 1.13075-1.56532 1.90734-.32167.77658-.40583 1.63112-.24185 2.45554.16399.82442.56877 1.58169 1.16314 2.17607.59437.59439 1.3516.99919 2.1761 1.16309.8244.164 1.6789.0799 2.4555-.2418s1.4404-.86641 1.9073-1.56532c.467-.69891.7163-1.52061.7163-2.36118-.0026-1.12636-.4513-2.20583-1.2477-3.00228-.7965-.79646-1.8759-1.24508-3.0023-1.24772z"></path><path d="m3.25 20.25c-.19811-.0026-.38737-.0824-.52747-.2225-.14009-.1401-.21994-.3294-.22253-.5275.00528-2.319.92885-4.5415 2.56865-6.1813s3.86233-2.5634 6.18135-2.5687h2c.1989 0 .3897.079.5303.2197.1407.1406.2197.3314.2197.5303s-.079.3897-.2197.5303c-.1406.1407-.3314.2197-.5303.2197h-2c-1.92201.0026-3.76454.7673-5.1236 2.1264-1.35907 1.3591-2.12375 3.2016-2.1264 5.1236-.00259.1981-.08244.3874-.22253.5275-.1401.1401-.32936.2199-.52747.2225z"></path><path d="m16.75 23.25c-.1981-.0026-.3874-.0824-.5275-.2225s-.2199-.3294-.2225-.5275v-8c0-.1989.079-.3897.2197-.5303.1406-.1407.3314-.2197.5303-.2197s.3897.079.5303.2197c.1407.1406.2197.3314.2197.5303v8c-.0026.1981-.0824.3874-.2225.5275s-.3294.2199-.5275.2225z"></path><path d="m20.75 19.25h-8c-.1989 0-.3897-.079-.5303-.2197-.1407-.1406-.2197-.3314-.2197-.5303s.079-.3897.2197-.5303c.1406-.1407.3314-.2197.5303-.2197h8c.1989 0 .3897.079.5303.2197.1407.1406.2197.3314.2197.5303s-.079.3897-.2197.5303c-.1406.1407-.3314.2197-.5303.2197z"></path></g></svg>